<svg width="1010" height="148" viewBox="0 0 1010 148" fill="none" xmlns="http://www.w3.org/2000/svg">
<g clip-path="url(#clip0_2239_314)">
<g filter="url(#filter0_iiii_2239_314)">
<path d="M21.8824 170.155C7.33059 170.155 0.0546875 160.543 0.0546875 141.321C0.0546875 129.823 2.56981 116.439 7.60007 101.168C9.93554 94.1619 12.4507 87.425 15.1455 80.9575C17.8403 74.49 20.7147 68.4717 23.7688 62.9025C27.5415 56.0757 31.4938 49.6082 35.6258 43.5001C39.7578 37.2123 44.1593 31.2837 48.8302 25.7145C62.3041 9.00685 73.8019 0.653024 83.3234 0.653024C87.2758 0.653024 89.2519 2.53938 89.2519 6.31207C89.2519 11.3424 87.1859 19.0674 83.0539 29.4872C69.2207 63.8008 46.7642 95.0602 15.6844 123.266C12.6304 134.584 11.1033 143.656 11.1033 150.483C11.1033 162.16 14.7862 167.999 22.1519 167.999C24.667 167.999 27.0923 167.55 29.4278 166.652C31.7633 165.574 33.8293 164.406 35.6258 163.148C40.4764 159.376 44.6084 154.974 48.0218 149.944C51.4352 144.914 54.3994 139.883 56.9146 134.853C59.4297 129.823 61.6754 125.601 63.6515 122.188C64.1905 121.289 64.7294 121.02 65.2684 121.379C65.8074 121.559 65.8972 122.098 65.5379 122.996C61.9448 130.542 57.9925 138.267 53.6808 146.171C49.3692 154.076 43.8898 160.364 37.2427 165.035C32.3921 168.448 27.272 170.155 21.8824 170.155ZM16.4929 120.571C20.0859 117.517 23.8586 113.744 27.811 109.253C31.7633 104.762 35.9851 99.6413 40.4764 93.8925C44.9677 88.1436 49.5488 81.7659 54.2198 74.7595C58.8907 67.7531 63.5617 60.2077 68.2327 52.1234C80.8083 30.7448 87.0961 15.8337 87.0961 7.38999C87.0961 4.3359 86.108 2.80886 84.1319 2.80886C77.4847 2.80886 65.6277 17.0912 48.5608 45.6559C44.0695 53.7402 40.0273 61.5551 36.4343 69.1005C32.1226 78.622 28.2601 87.6945 24.8467 96.3178C21.613 104.762 18.8284 112.846 16.4929 120.571ZM117.214 63.6391C126.27 63.6391 134.464 65.8671 141.795 70.3233C149.126 74.7794 154.876 80.8886 159.044 88.6509C163.213 96.2695 165.297 104.822 165.297 114.31C165.297 117.041 165.225 119.125 165.082 120.563H82.0678C82.6428 130.912 86.0208 139.753 92.2019 147.084C98.383 154.415 106.792 158.081 117.43 158.081C126.054 158.081 133.17 156.499 138.776 153.337C144.526 150.031 149.126 145.503 152.576 139.753L164.219 147.515C159.476 154.99 153.223 160.884 145.46 165.196C137.698 169.365 128.498 171.449 117.861 171.449C108.086 171.449 99.3892 169.149 91.7707 164.549C84.1521 159.949 78.1867 153.552 73.8743 145.359C69.5619 137.165 67.4057 127.894 67.4057 117.544C67.4057 107.194 69.49 97.9226 73.6586 89.729C77.971 81.5355 83.8646 75.1388 91.3395 70.5389C98.958 65.939 107.583 63.6391 117.214 63.6391ZM150.635 108.488C149.198 97.9944 145.676 90.1603 140.07 84.9854C134.464 79.6668 126.845 77.0075 117.214 77.0075C107.871 77.0075 100.18 80.0261 94.1425 86.0635C88.2489 91.9571 84.5115 99.4319 82.9303 108.488H150.635ZM192.334 167.999V80.4574H175.084V67.089H192.334V33.6679H206.996V67.089H230.283V80.4574H206.996V167.999H192.334ZM241.364 45.7426C246.826 40.2803 250.635 32.8773 252.792 23.5338C249.485 23.5338 246.682 22.3839 244.382 20.0839C242.226 17.784 241.148 14.9809 241.148 11.6748C241.148 8.51229 242.226 5.78111 244.382 3.48117C246.682 1.18123 249.414 0.03125 252.576 0.03125C256.026 0.03125 258.829 1.10935 260.985 3.26554C263.285 5.42175 264.435 8.29667 264.435 11.8904C264.435 19.3652 262.638 26.4806 259.045 33.2367C255.451 39.9928 250.779 44.8802 245.029 47.8988L241.364 45.7426ZM257.944 78.0252C257.944 66.6492 267.695 62.3647 279.071 62.3647C290.447 62.3647 303.448 66.6492 309.653 72.5588L307.732 56.0119L309.801 55.7164L320.881 120.131C323.836 125.598 325.757 132.098 325.757 140.224C325.757 157.657 310.244 170.067 291.038 170.067C255.728 170.067 251.296 138.008 253.364 123.381L237.556 134.757L236.374 133.132L274.343 100.482C265.035 94.7198 257.944 88.0715 257.944 78.0252ZM281.73 94.1288L295.618 82.1619L296.947 83.787L284.537 95.3108C295.913 99.743 309.062 104.914 317.335 115.108C316.597 111.562 315.71 108.017 314.824 105.062C306.846 76.991 288.526 65.024 275.673 65.024C267.695 65.024 261.785 69.604 261.785 77.7297C261.785 85.7077 270.649 89.6966 281.73 94.1288ZM277.15 102.255L270.945 108.017C253.659 124.12 259.274 167.704 289.265 167.704C304.334 167.704 314.381 156.032 314.381 141.997C314.381 120.574 293.549 112.005 277.15 102.255ZM434.139 171.449C424.364 171.449 415.667 169.149 408.049 164.549C400.43 159.949 394.465 153.552 390.152 145.359C385.84 137.165 383.684 127.894 383.684 117.544C383.684 107.194 385.768 97.9226 389.937 89.729C394.249 81.5355 400.214 75.1388 407.833 70.5389C415.452 65.939 424.076 63.6391 433.707 63.6391C441.901 63.6391 449.016 65.4359 455.054 69.0295C461.235 72.4795 466.841 77.4387 471.872 83.9073L461.091 92.3165C454.048 82.1105 444.92 77.0075 433.707 77.0075C426.951 77.0075 420.842 78.7324 415.38 82.1823C410.061 85.6322 405.892 90.4477 402.874 96.6288C399.855 102.81 398.346 109.782 398.346 117.544C398.346 125.306 399.855 132.278 402.874 138.459C405.892 144.64 410.061 149.456 415.38 152.906C420.842 156.356 426.951 158.081 433.707 158.081C440.607 158.081 446.285 156.931 450.741 154.631C455.197 152.187 459.222 148.665 462.816 144.065L474.244 152.043C469.5 157.937 463.607 162.68 456.563 166.274C449.663 169.724 442.188 171.449 434.139 171.449ZM526.329 171.449C516.698 171.449 508.074 169.149 500.455 164.549C492.837 159.949 486.871 153.552 482.559 145.359C478.246 137.022 476.09 127.678 476.09 117.328C476.09 106.979 478.174 97.7788 482.343 89.729C486.655 81.5355 492.549 75.1388 500.024 70.5389C507.642 65.939 516.267 63.6391 525.898 63.6391C535.529 63.6391 544.154 65.939 551.773 70.5389C559.391 75.1388 565.357 81.5355 569.669 89.729C573.981 97.9226 576.138 107.194 576.138 117.544C576.138 127.894 573.981 137.165 569.669 145.359C565.5 153.552 559.607 159.949 551.988 164.549C544.513 169.149 535.96 171.449 526.329 171.449ZM525.898 158.081C532.798 158.081 538.907 156.356 544.226 152.906C549.688 149.456 553.929 144.64 556.947 138.459C559.966 132.278 561.475 125.306 561.475 117.544C561.475 109.782 559.966 102.81 556.947 96.6288C553.929 90.4477 549.688 85.6322 544.226 82.1823C538.907 78.7324 532.798 77.0075 525.898 77.0075C519.142 77.0075 513.105 78.7324 507.786 82.1823C502.468 85.6322 498.299 90.4477 495.28 96.6288C492.262 102.666 490.752 109.566 490.752 117.328C490.752 125.234 492.262 132.278 495.28 138.459C498.299 144.64 502.468 149.456 507.786 152.906C513.105 156.356 519.142 158.081 525.898 158.081ZM569.466 178.246L569.164 177.643C576.398 161.971 585.741 140.271 597.193 112.543C599.002 107.922 601.112 102.196 603.523 95.3639C606.135 88.5324 609.048 80.5958 612.263 71.5541H612.866C614.875 73.1616 616.583 73.9653 617.989 73.9653C623.013 73.9653 627.734 69.6453 632.155 61.0055V61.3069C632.155 61.7087 627.734 72.4583 618.894 93.5556C614.071 105.009 610.455 113.749 608.043 119.777C605.632 125.804 604.226 129.22 603.824 130.024C626.73 88.8337 645.014 68.2389 658.677 68.2389C661.691 68.2389 664.403 69.2435 666.815 71.2528C669.226 73.262 670.431 75.8741 670.431 79.0889C670.431 87.5278 664.705 101.392 653.252 120.681C641.799 139.97 636.073 153.13 636.073 160.163C636.073 162.775 637.077 164.784 639.087 166.191C641.096 167.597 643.507 168.3 646.32 168.3C649.133 168.3 652.046 167.698 655.06 166.492C658.074 165.286 660.586 163.98 662.595 162.574C668.02 158.355 672.641 153.432 676.459 147.806C680.277 142.18 683.592 136.554 686.405 130.928C689.218 125.302 691.729 120.58 693.94 116.763C694.542 115.758 695.145 115.457 695.748 115.859C696.351 116.059 696.451 116.662 696.049 117.667C692.031 126.106 687.61 134.746 682.788 143.586C677.966 152.427 671.838 159.46 664.403 164.684C661.791 166.492 658.878 167.999 655.663 169.205C652.649 170.41 649.434 171.013 646.019 171.013C640.393 171.013 635.771 169.506 632.155 166.492C628.739 163.478 627.031 158.857 627.031 152.628C627.031 141.778 632.054 128.115 642.101 111.639C652.348 94.7612 657.471 84.1121 657.471 79.6917C657.471 76.2759 655.563 74.5681 651.745 74.5681H649.937C645.516 74.5681 639.488 79.6917 631.853 89.9389C624.218 99.9853 614.975 114.854 604.125 134.545C601.513 138.965 598.801 144.089 595.988 149.916C593.376 155.542 590.563 161.871 587.549 168.903L586.946 169.205C584.535 167.999 582.425 167.396 580.617 167.396C578.005 167.396 575.795 169.004 573.986 172.218C572.379 175.634 570.872 177.643 569.466 178.246ZM730.342 63.6391C737.385 63.6391 743.854 65.0765 749.748 67.9514C755.785 70.8264 760.529 75.0669 763.978 80.673C767.572 86.2791 769.369 92.8914 769.369 100.51V167.999H754.707V106.979C754.707 86.9978 745.795 77.0075 727.97 77.0075C717.62 77.0075 709.858 80.673 704.683 88.0041C699.508 95.3351 696.921 105.182 696.921 117.544V167.999H682.259V67.089H696.921V83.9073C700.371 77.4387 704.899 72.4795 710.505 69.0295C716.255 65.4359 722.867 63.6391 730.342 63.6391ZM807.436 171.131C797.204 171.131 790.105 168.312 786.138 162.674C782.17 156.828 780.187 148.684 780.187 138.244C780.187 123.21 786.451 107.55 798.979 91.2627C812.343 74.1406 826.228 65.5795 840.636 65.5795C851.285 65.5795 856.61 69.2336 856.61 76.5419C856.61 85.5205 851.703 94.9168 841.889 104.731C827.899 118.93 813.178 126.029 797.726 126.029C795.221 132.502 793.968 138.975 793.968 145.448C793.968 152.547 795.325 158.081 798.04 162.048C800.754 166.015 804.721 167.999 809.942 167.999C815.371 167.999 821.008 166.537 826.855 163.614C832.701 160.482 837.713 156.828 841.889 152.652C845.439 149.102 849.406 144.3 853.791 138.244C858.385 131.98 862.978 124.359 867.572 115.38C868.198 114.336 868.825 113.814 869.451 113.814C870.704 113.814 870.704 114.858 869.451 116.946C865.902 124.045 862.039 130.832 857.863 137.305C853.895 143.777 848.571 150.042 841.889 156.097C837.922 160.064 832.91 163.614 826.855 166.746C820.799 169.669 814.327 171.131 807.436 171.131ZM798.04 123.837C809.524 123.837 822.366 117.677 836.564 105.357V105.044C840.532 101.703 844.29 97.1093 847.84 91.2627C852.016 84.7897 854.104 79.2563 854.104 74.6626C854.104 71.3217 851.598 69.6513 846.587 69.6513C838.652 69.6513 829.047 76.7507 817.772 90.9495C812.552 97.2137 808.376 103.06 805.243 108.489C802.111 113.918 799.71 119.034 798.04 123.837ZM911.706 171.449C901.931 171.449 893.234 169.149 885.616 164.549C877.997 159.949 872.032 153.553 867.72 145.359C863.407 137.166 861.251 127.894 861.251 117.544C861.251 107.195 863.335 97.9231 867.504 89.7296C871.816 81.5362 877.782 75.1395 885.4 70.5396C893.019 65.9398 901.643 63.6399 911.274 63.6399C919.468 63.6399 926.583 65.4367 932.62 69.0303C938.802 72.4802 944.408 77.4394 949.439 83.9079L938.658 92.317C931.614 82.1111 922.486 77.0082 911.274 77.0082C904.518 77.0082 898.409 78.7331 892.947 82.183C887.628 85.6329 883.46 90.4484 880.441 96.6294C877.422 102.811 875.913 109.782 875.913 117.544C875.913 125.307 877.422 132.278 880.441 138.459C883.46 144.64 887.628 149.456 892.947 152.906C898.409 156.356 904.518 158.081 911.274 158.081C918.174 158.081 923.852 156.931 928.308 154.631C932.764 152.187 936.789 148.665 940.383 144.065L951.81 152.043C947.067 157.937 941.173 162.68 934.13 166.274C927.23 169.724 919.755 171.449 911.706 171.449ZM971.769 167.999V80.4574H954.519V67.089H971.769V33.6679H986.431V67.089H1009.72V80.4574H986.431V167.999H971.769Z" fill="white"/>
</g>
</g>
<defs>
<filter id="filter0_iiii_2239_314" x="0.0546875" y="0.03125" width="1030.94" height="178.215" filterUnits="userSpaceOnUse" color-interpolation-filters="sRGB">
<feFlood flood-opacity="0" result="BackgroundImageFix"/>
<feBlend mode="normal" in="SourceGraphic" in2="BackgroundImageFix" result="shape"/>
<feColorMatrix in="SourceAlpha" type="matrix" values="0 0 0 0 0 0 0 0 0 0 0 0 0 0 0 0 0 0 127 0" result="hardAlpha"/>
<feOffset dx="3.54576"/>
<feGaussianBlur stdDeviation="3.54576"/>
<feComposite in2="hardAlpha" operator="arithmetic" k2="-1" k3="1"/>
<feColorMatrix type="matrix" values="0 0 0 0 0 0 0 0 0 0 0 0 0 0 0 0 0 0 0.1 0"/>
<feBlend mode="normal" in2="shape" result="effect1_innerShadow_2239_314"/>
<feColorMatrix in="SourceAlpha" type="matrix" values="0 0 0 0 0 0 0 0 0 0 0 0 0 0 0 0 0 0 127 0" result="hardAlpha"/>
<feOffset dx="14.1831"/>
<feGaussianBlur stdDeviation="7.09153"/>
<feComposite in2="hardAlpha" operator="arithmetic" k2="-1" k3="1"/>
<feColorMatrix type="matrix" values="0 0 0 0 0 0 0 0 0 0 0 0 0 0 0 0 0 0 0.09 0"/>
<feBlend mode="normal" in2="effect1_innerShadow_2239_314" result="effect2_innerShadow_2239_314"/>
<feColorMatrix in="SourceAlpha" type="matrix" values="0 0 0 0 0 0 0 0 0 0 0 0 0 0 0 0 0 0 127 0" result="hardAlpha"/>
<feOffset dx="30.7299"/>
<feGaussianBlur stdDeviation="9.45537"/>
<feComposite in2="hardAlpha" operator="arithmetic" k2="-1" k3="1"/>
<feColorMatrix type="matrix" values="0 0 0 0 0 0 0 0 0 0 0 0 0 0 0 0 0 0 0.05 0"/>
<feBlend mode="normal" in2="effect2_innerShadow_2239_314" result="effect3_innerShadow_2239_314"/>
<feColorMatrix in="SourceAlpha" type="matrix" values="0 0 0 0 0 0 0 0 0 0 0 0 0 0 0 0 0 0 127 0" result="hardAlpha"/>
<feOffset dx="54.3684"/>
<feGaussianBlur stdDeviation="10.6373"/>
<feComposite in2="hardAlpha" operator="arithmetic" k2="-1" k3="1"/>
<feColorMatrix type="matrix" values="0 0 0 0 0 0 0 0 0 0 0 0 0 0 0 0 0 0 0.01 0"/>
<feBlend mode="normal" in2="effect3_innerShadow_2239_314" result="effect4_innerShadow_2239_314"/>
</filter>
<clipPath id="clip0_2239_314">
<rect width="1010" height="148" fill="white"/>
</clipPath>
</defs>
</svg>
