<svg width="34" height="34" viewBox="0 0 34 34" fill="none" xmlns="http://www.w3.org/2000/svg">
<g clip-path="url(#clip0_2220_317)">
<rect width="34" height="34" rx="2" fill="white"/>
<g clip-path="url(#clip1_2220_317)">
<path d="M17.0263 0L0 16.8557V0H17.0263Z" fill="#111729"/>
<path d="M33.9986 0V45H30.8144C29.8933 44.5876 28.9722 43.866 28.2091 43.0155C26.8933 41.5464 24.6038 36.3144 23.3407 33.3505L12.7617 7.75773L14.1828 6.36598C15.0775 5.51546 18.3407 2.55155 19.8933 1.52062C20.8933 0.850515 21.9722 0.360825 23.0775 0H33.9722L33.9986 0Z" fill="#55DAEF"/>
<path d="M21.1842 45.0016H0V20.3367L7.76316 12.6562L21.1842 45.0016Z" fill="#111729"/>
</g>
</g>
<defs>
<clipPath id="clip0_2220_317">
<rect width="34" height="34" rx="2" fill="white"/>
</clipPath>
<clipPath id="clip1_2220_317">
<rect width="34" height="45" rx="2" fill="white"/>
</clipPath>
</defs>
</svg>
