<svg width="366" height="81" viewBox="0 0 366 81" fill="none" xmlns="http://www.w3.org/2000/svg">
<mask id="path-1-inside-1_2025_1193" fill="white">
<path d="M8.49514 55.025V16.8738C8.49514 15.4311 8.41499 13.4273 8.25469 12.3053C8.01424 10.8626 7.53335 9.66034 5.60976 9.41989C4.40751 9.25959 0.800781 9.01914 0.800781 9.01914V7.89705H23.0824V9.01914L15.2277 9.58019V32.1022L36.7078 8.21764L33.4217 1.24464L34.3834 0.683594L38.5512 8.05735L53.2186 34.8273L52.0965 35.4685C52.0965 35.4685 42.6388 17.9959 40.555 15.1906C39.7535 14.0685 38.3108 13.4273 36.8681 13.4273C34.5437 13.4273 32.2194 15.2708 30.6164 16.8738L28.6127 19.118L39.6733 49.2542C40.9557 52.7006 43.1198 57.9905 44.4021 59.5133C45.6044 61.0362 47.1272 62.0781 48.5699 62.3186C50.4134 62.7193 53.459 62.9598 53.459 62.9598V64.0017H31.8187V62.8796L37.349 62.4789L23.5633 24.8086L15.2277 34.1059V62.3186L23.0824 62.8796V64.0017H0.800781V62.9598C0.800781 62.9598 4.56781 62.9598 5.52961 62.6392C7.37305 62.1583 8.01424 61.0362 8.25469 59.4332C8.41499 58.3912 8.49514 56.4676 8.49514 55.025ZM82.2082 64.3407C78.2909 64.3407 76.3322 61.6287 76.3322 56.2047C76.3322 54.0954 76.6712 51.6847 77.3492 48.9727C72.0759 59.1427 66.8402 64.2277 61.6422 64.2277C59.1562 64.2277 57.2729 62.9847 55.9922 60.4987C54.9376 58.6154 54.4102 56.2424 54.4102 53.3797C54.4102 51.0444 54.7492 48.596 55.4272 46.0347C56.7079 41.59 59.4199 37.409 63.5632 33.4917C68.1586 29.273 72.5279 27.1637 76.6712 27.1637C80.4379 27.1637 82.3212 29.4237 82.3212 33.9437C82.3212 35.9024 81.9069 38.2 81.0782 40.8367L87.9712 27.2767H88.3102C88.5362 27.6534 89.0259 27.8417 89.7792 27.8417C91.2859 27.8417 93.2069 26.9377 95.5422 25.1297L95.7682 25.3557L86.1632 44.1137C82.3212 51.5717 80.4002 57.2217 80.4002 61.0637C80.4002 62.5704 81.0782 63.3237 82.4342 63.3237C83.3382 63.3237 84.4306 62.9847 85.7112 62.3067C86.9919 61.6287 88.3479 60.4987 89.7792 58.9167C91.5872 56.8074 93.1316 54.811 94.4122 52.9277C95.7682 50.969 97.3126 48.3324 99.0452 45.0177C99.2712 44.641 99.4972 44.4527 99.7232 44.4527C100.175 44.4527 100.175 44.8294 99.7232 45.5827C98.3672 48.144 96.8982 50.7054 95.3162 53.2667C93.8096 55.7527 91.9639 58.088 89.7792 60.2727C87.0672 62.9847 84.5436 64.3407 82.2082 64.3407ZM62.0942 63.4367C66.3129 63.4367 71.7369 57.4854 78.3662 45.5827C80.4756 41.816 81.5302 38.0117 81.5302 34.1697C81.5302 30.1017 80.2119 28.0677 77.5752 28.0677C74.7126 28.0677 71.4732 30.4407 67.8572 35.1867C66.4259 37.1454 65.1829 39.0664 64.1282 40.9497C63.1489 42.833 62.3579 44.641 61.7552 46.3737C60.1732 50.8937 59.3822 54.9617 59.3822 58.5777C59.3822 61.817 60.2862 63.4367 62.0942 63.4367ZM104.169 64.0017V31.461H97.7575V26.4917H104.169V14.0685H109.619V26.4917H118.275V31.461H109.619V64.0017H104.169ZM126.808 65.1317C123.117 65.1317 120.556 64.1147 119.124 62.0807C117.693 59.9714 116.977 57.0334 116.977 53.2667C116.977 47.8427 119.237 42.1927 123.757 36.3167C128.579 30.1394 133.588 27.0507 138.786 27.0507C142.628 27.0507 144.549 28.369 144.549 31.0057C144.549 34.245 142.779 37.635 139.238 41.1757C134.191 46.2984 128.88 48.8597 123.305 48.8597C122.401 51.195 121.949 53.5304 121.949 55.8657C121.949 58.427 122.439 60.4234 123.418 61.8547C124.398 63.286 125.829 64.0017 127.712 64.0017C129.671 64.0017 131.705 63.4744 133.814 62.4197C135.924 61.2897 137.732 59.9714 139.238 58.4647C140.519 57.184 141.95 55.4514 143.532 53.2667C145.19 51.0067 146.847 48.257 148.504 45.0177C148.73 44.641 148.956 44.4527 149.182 44.4527C149.634 44.4527 149.634 44.8294 149.182 45.5827C147.902 48.144 146.508 50.5924 145.001 52.9277C143.57 55.263 141.649 57.523 139.238 59.7077C137.807 61.139 135.999 62.4197 133.814 63.5497C131.63 64.6044 129.294 65.1317 126.808 65.1317ZM123.418 48.0687C127.562 48.0687 132.195 45.8464 137.317 41.4017V41.2887C138.749 40.0834 140.105 38.426 141.385 36.3167C142.892 33.9814 143.645 31.985 143.645 30.3277C143.645 29.1224 142.741 28.5197 140.933 28.5197C138.071 28.5197 134.605 31.081 130.537 36.2037C128.654 38.4637 127.147 40.573 126.017 42.5317C124.887 44.4904 124.021 46.336 123.418 48.0687ZM188.959 9.01914L179.422 9.74049L195.932 43.0827L211.241 9.66034L199.78 9.01914V7.89705H221.901V9.01914C221.901 9.01914 217.893 9.17944 216.13 9.66034C214.447 10.1412 213.245 10.7023 211.882 12.706C210.279 15.1105 206.672 22.8048 206.672 22.8048L206.993 22.0835L196.333 45.407V53.5021C196.333 55.586 196.333 58.3111 196.574 59.353C196.814 60.8759 197.455 61.998 199.299 62.4789C200.341 62.7995 204.027 62.8796 204.027 62.8796V64.0017H181.906V62.8796C181.906 62.8796 185.593 62.7995 186.635 62.4789C188.478 61.998 189.12 60.8759 189.36 59.353C189.601 58.3111 189.601 56.3875 189.601 54.8647V45.407L173.49 13.1869C172.449 11.3435 170.525 10.0611 168.441 9.66034C166.598 9.25959 162.109 9.01914 162.109 9.01914V7.89705H188.959V9.01914ZM250.644 26.4917V64.0017H245.194V57.75C243.912 60.1545 242.202 62.0247 240.065 63.3605C237.981 64.6429 235.55 65.2841 232.771 65.2841C230.153 65.2841 227.722 64.7498 225.477 63.6811C223.287 62.6124 221.523 61.0362 220.188 58.9523C218.905 56.8684 218.264 54.4105 218.264 51.5785V26.4917H223.714V49.174C223.714 56.6012 227.027 60.3148 233.653 60.3148C237.5 60.3148 240.385 58.9523 242.309 56.2272C244.232 53.5021 245.194 49.8419 245.194 45.2467V26.4917H250.644ZM283.17 43.7547V44.5197L280.059 44.5707C278.733 44.5707 277.203 44.6217 276.489 44.7237C273.276 45.1317 271.134 45.1317 269.298 47.2737C267.87 48.9567 255.12 63.9507 255.12 63.9507L254.61 63.4407L274.5 39.0627L275.112 39.4707L272.154 43.7547H283.17ZM279.039 24.2727H279.753V37.7367H279.039C276.234 32.6877 271.899 29.9847 266.595 29.9847C250.53 29.9847 256.803 62.1657 274.143 62.1657C277.458 62.1657 280.365 59.4117 280.365 53.4957C280.365 50.4867 279.294 46.9167 278.325 44.2137C278.886 43.9587 278.529 44.1627 279.141 44.1627C280.263 47.1207 281.181 50.5377 281.181 53.4447C281.181 61.2987 276.336 64.5627 270.675 64.5627C258.843 64.5627 254.763 52.0167 254.763 46.0497C254.763 33.5547 262.209 27.4347 270.777 27.4347C275.418 27.4347 278.427 30.1887 278.427 30.1887L279.039 24.2727ZM314.759 64.3407C310.841 64.3407 308.883 61.6287 308.883 56.2047C308.883 54.0954 309.222 51.6847 309.9 48.9727C304.626 59.1427 299.391 64.2277 294.193 64.2277C291.707 64.2277 289.823 62.9847 288.543 60.4987C287.488 58.6154 286.961 56.2424 286.961 53.3797C286.961 51.0444 287.3 48.596 287.978 46.0347C289.258 41.59 291.97 37.409 296.114 33.4917C300.709 29.273 305.078 27.1637 309.222 27.1637C312.988 27.1637 314.872 29.4237 314.872 33.9437C314.872 35.9024 314.457 38.2 313.629 40.8367L320.522 27.2767H320.861C321.087 27.6534 321.576 27.8417 322.33 27.8417C323.836 27.8417 325.757 26.9377 328.093 25.1297L328.319 25.3557L318.714 44.1137C314.872 51.5717 312.951 57.2217 312.951 61.0637C312.951 62.5704 313.629 63.3237 314.985 63.3237C315.889 63.3237 316.981 62.9847 318.262 62.3067C319.542 61.6287 320.898 60.4987 322.33 58.9167C324.138 56.8074 325.682 54.811 326.963 52.9277C328.319 50.969 329.863 48.3324 331.596 45.0177C331.822 44.641 332.048 44.4527 332.274 44.4527C332.726 44.4527 332.726 44.8294 332.274 45.5827C330.918 48.144 329.449 50.7054 327.867 53.2667C326.36 55.7527 324.514 58.088 322.33 60.2727C319.618 62.9847 317.094 64.3407 314.759 64.3407ZM294.645 63.4367C298.863 63.4367 304.287 57.4854 310.917 45.5827C313.026 41.816 314.081 38.0117 314.081 34.1697C314.081 30.1017 312.762 28.0677 310.126 28.0677C307.263 28.0677 304.024 30.4407 300.408 35.1867C298.976 37.1454 297.733 39.0664 296.679 40.9497C295.699 42.833 294.908 44.641 294.306 46.3737C292.724 50.8937 291.933 54.9617 291.933 58.5777C291.933 61.817 292.837 63.4367 294.645 63.4367ZM360.524 26.4917H365.654L355.515 53.2617L345.376 80.0316H339.926L345.857 64.723L330.468 26.4917H336.159L348.582 57.5897L360.524 26.4917Z"/>
</mask>
<path d="M8.49514 55.025V16.8738C8.49514 15.4311 8.41499 13.4273 8.25469 12.3053C8.01424 10.8626 7.53335 9.66034 5.60976 9.41989C4.40751 9.25959 0.800781 9.01914 0.800781 9.01914V7.89705H23.0824V9.01914L15.2277 9.58019V32.1022L36.7078 8.21764L33.4217 1.24464L34.3834 0.683594L38.5512 8.05735L53.2186 34.8273L52.0965 35.4685C52.0965 35.4685 42.6388 17.9959 40.555 15.1906C39.7535 14.0685 38.3108 13.4273 36.8681 13.4273C34.5437 13.4273 32.2194 15.2708 30.6164 16.8738L28.6127 19.118L39.6733 49.2542C40.9557 52.7006 43.1198 57.9905 44.4021 59.5133C45.6044 61.0362 47.1272 62.0781 48.5699 62.3186C50.4134 62.7193 53.459 62.9598 53.459 62.9598V64.0017H31.8187V62.8796L37.349 62.4789L23.5633 24.8086L15.2277 34.1059V62.3186L23.0824 62.8796V64.0017H0.800781V62.9598C0.800781 62.9598 4.56781 62.9598 5.52961 62.6392C7.37305 62.1583 8.01424 61.0362 8.25469 59.4332C8.41499 58.3912 8.49514 56.4676 8.49514 55.025ZM82.2082 64.3407C78.2909 64.3407 76.3322 61.6287 76.3322 56.2047C76.3322 54.0954 76.6712 51.6847 77.3492 48.9727C72.0759 59.1427 66.8402 64.2277 61.6422 64.2277C59.1562 64.2277 57.2729 62.9847 55.9922 60.4987C54.9376 58.6154 54.4102 56.2424 54.4102 53.3797C54.4102 51.0444 54.7492 48.596 55.4272 46.0347C56.7079 41.59 59.4199 37.409 63.5632 33.4917C68.1586 29.273 72.5279 27.1637 76.6712 27.1637C80.4379 27.1637 82.3212 29.4237 82.3212 33.9437C82.3212 35.9024 81.9069 38.2 81.0782 40.8367L87.9712 27.2767H88.3102C88.5362 27.6534 89.0259 27.8417 89.7792 27.8417C91.2859 27.8417 93.2069 26.9377 95.5422 25.1297L95.7682 25.3557L86.1632 44.1137C82.3212 51.5717 80.4002 57.2217 80.4002 61.0637C80.4002 62.5704 81.0782 63.3237 82.4342 63.3237C83.3382 63.3237 84.4306 62.9847 85.7112 62.3067C86.9919 61.6287 88.3479 60.4987 89.7792 58.9167C91.5872 56.8074 93.1316 54.811 94.4122 52.9277C95.7682 50.969 97.3126 48.3324 99.0452 45.0177C99.2712 44.641 99.4972 44.4527 99.7232 44.4527C100.175 44.4527 100.175 44.8294 99.7232 45.5827C98.3672 48.144 96.8982 50.7054 95.3162 53.2667C93.8096 55.7527 91.9639 58.088 89.7792 60.2727C87.0672 62.9847 84.5436 64.3407 82.2082 64.3407ZM62.0942 63.4367C66.3129 63.4367 71.7369 57.4854 78.3662 45.5827C80.4756 41.816 81.5302 38.0117 81.5302 34.1697C81.5302 30.1017 80.2119 28.0677 77.5752 28.0677C74.7126 28.0677 71.4732 30.4407 67.8572 35.1867C66.4259 37.1454 65.1829 39.0664 64.1282 40.9497C63.1489 42.833 62.3579 44.641 61.7552 46.3737C60.1732 50.8937 59.3822 54.9617 59.3822 58.5777C59.3822 61.817 60.2862 63.4367 62.0942 63.4367ZM104.169 64.0017V31.461H97.7575V26.4917H104.169V14.0685H109.619V26.4917H118.275V31.461H109.619V64.0017H104.169ZM126.808 65.1317C123.117 65.1317 120.556 64.1147 119.124 62.0807C117.693 59.9714 116.977 57.0334 116.977 53.2667C116.977 47.8427 119.237 42.1927 123.757 36.3167C128.579 30.1394 133.588 27.0507 138.786 27.0507C142.628 27.0507 144.549 28.369 144.549 31.0057C144.549 34.245 142.779 37.635 139.238 41.1757C134.191 46.2984 128.88 48.8597 123.305 48.8597C122.401 51.195 121.949 53.5304 121.949 55.8657C121.949 58.427 122.439 60.4234 123.418 61.8547C124.398 63.286 125.829 64.0017 127.712 64.0017C129.671 64.0017 131.705 63.4744 133.814 62.4197C135.924 61.2897 137.732 59.9714 139.238 58.4647C140.519 57.184 141.95 55.4514 143.532 53.2667C145.19 51.0067 146.847 48.257 148.504 45.0177C148.73 44.641 148.956 44.4527 149.182 44.4527C149.634 44.4527 149.634 44.8294 149.182 45.5827C147.902 48.144 146.508 50.5924 145.001 52.9277C143.57 55.263 141.649 57.523 139.238 59.7077C137.807 61.139 135.999 62.4197 133.814 63.5497C131.63 64.6044 129.294 65.1317 126.808 65.1317ZM123.418 48.0687C127.562 48.0687 132.195 45.8464 137.317 41.4017V41.2887C138.749 40.0834 140.105 38.426 141.385 36.3167C142.892 33.9814 143.645 31.985 143.645 30.3277C143.645 29.1224 142.741 28.5197 140.933 28.5197C138.071 28.5197 134.605 31.081 130.537 36.2037C128.654 38.4637 127.147 40.573 126.017 42.5317C124.887 44.4904 124.021 46.336 123.418 48.0687ZM188.959 9.01914L179.422 9.74049L195.932 43.0827L211.241 9.66034L199.78 9.01914V7.89705H221.901V9.01914C221.901 9.01914 217.893 9.17944 216.13 9.66034C214.447 10.1412 213.245 10.7023 211.882 12.706C210.279 15.1105 206.672 22.8048 206.672 22.8048L206.993 22.0835L196.333 45.407V53.5021C196.333 55.586 196.333 58.3111 196.574 59.353C196.814 60.8759 197.455 61.998 199.299 62.4789C200.341 62.7995 204.027 62.8796 204.027 62.8796V64.0017H181.906V62.8796C181.906 62.8796 185.593 62.7995 186.635 62.4789C188.478 61.998 189.12 60.8759 189.36 59.353C189.601 58.3111 189.601 56.3875 189.601 54.8647V45.407L173.49 13.1869C172.449 11.3435 170.525 10.0611 168.441 9.66034C166.598 9.25959 162.109 9.01914 162.109 9.01914V7.89705H188.959V9.01914ZM250.644 26.4917V64.0017H245.194V57.75C243.912 60.1545 242.202 62.0247 240.065 63.3605C237.981 64.6429 235.55 65.2841 232.771 65.2841C230.153 65.2841 227.722 64.7498 225.477 63.6811C223.287 62.6124 221.523 61.0362 220.188 58.9523C218.905 56.8684 218.264 54.4105 218.264 51.5785V26.4917H223.714V49.174C223.714 56.6012 227.027 60.3148 233.653 60.3148C237.5 60.3148 240.385 58.9523 242.309 56.2272C244.232 53.5021 245.194 49.8419 245.194 45.2467V26.4917H250.644ZM283.17 43.7547V44.5197L280.059 44.5707C278.733 44.5707 277.203 44.6217 276.489 44.7237C273.276 45.1317 271.134 45.1317 269.298 47.2737C267.87 48.9567 255.12 63.9507 255.12 63.9507L254.61 63.4407L274.5 39.0627L275.112 39.4707L272.154 43.7547H283.17ZM279.039 24.2727H279.753V37.7367H279.039C276.234 32.6877 271.899 29.9847 266.595 29.9847C250.53 29.9847 256.803 62.1657 274.143 62.1657C277.458 62.1657 280.365 59.4117 280.365 53.4957C280.365 50.4867 279.294 46.9167 278.325 44.2137C278.886 43.9587 278.529 44.1627 279.141 44.1627C280.263 47.1207 281.181 50.5377 281.181 53.4447C281.181 61.2987 276.336 64.5627 270.675 64.5627C258.843 64.5627 254.763 52.0167 254.763 46.0497C254.763 33.5547 262.209 27.4347 270.777 27.4347C275.418 27.4347 278.427 30.1887 278.427 30.1887L279.039 24.2727ZM314.759 64.3407C310.841 64.3407 308.883 61.6287 308.883 56.2047C308.883 54.0954 309.222 51.6847 309.9 48.9727C304.626 59.1427 299.391 64.2277 294.193 64.2277C291.707 64.2277 289.823 62.9847 288.543 60.4987C287.488 58.6154 286.961 56.2424 286.961 53.3797C286.961 51.0444 287.3 48.596 287.978 46.0347C289.258 41.59 291.97 37.409 296.114 33.4917C300.709 29.273 305.078 27.1637 309.222 27.1637C312.988 27.1637 314.872 29.4237 314.872 33.9437C314.872 35.9024 314.457 38.2 313.629 40.8367L320.522 27.2767H320.861C321.087 27.6534 321.576 27.8417 322.33 27.8417C323.836 27.8417 325.757 26.9377 328.093 25.1297L328.319 25.3557L318.714 44.1137C314.872 51.5717 312.951 57.2217 312.951 61.0637C312.951 62.5704 313.629 63.3237 314.985 63.3237C315.889 63.3237 316.981 62.9847 318.262 62.3067C319.542 61.6287 320.898 60.4987 322.33 58.9167C324.138 56.8074 325.682 54.811 326.963 52.9277C328.319 50.969 329.863 48.3324 331.596 45.0177C331.822 44.641 332.048 44.4527 332.274 44.4527C332.726 44.4527 332.726 44.8294 332.274 45.5827C330.918 48.144 329.449 50.7054 327.867 53.2667C326.36 55.7527 324.514 58.088 322.33 60.2727C319.618 62.9847 317.094 64.3407 314.759 64.3407ZM294.645 63.4367C298.863 63.4367 304.287 57.4854 310.917 45.5827C313.026 41.816 314.081 38.0117 314.081 34.1697C314.081 30.1017 312.762 28.0677 310.126 28.0677C307.263 28.0677 304.024 30.4407 300.408 35.1867C298.976 37.1454 297.733 39.0664 296.679 40.9497C295.699 42.833 294.908 44.641 294.306 46.3737C292.724 50.8937 291.933 54.9617 291.933 58.5777C291.933 61.817 292.837 63.4367 294.645 63.4367ZM360.524 26.4917H365.654L355.515 53.2617L345.376 80.0316H339.926L345.857 64.723L330.468 26.4917H336.159L348.582 57.5897L360.524 26.4917Z" fill="#111729" stroke="black" stroke-width="2" mask="url(#path-1-inside-1_2025_1193)"/>
</svg>
